# xmcd
#
# Track frame offsets:
#	150
#	19119
#	39244
#	59091
#	75710
#	100680
#	116903
#	133794
#	151336
#	172887
#	192218
#	214719
#	235785
#	255146
#	272986
#	292746
#
# Disc length: 4173 seconds
#
# Revision: 1
# Processed by: cddbd v1.5.2PL0 Copyright (c) Steve Scherf et al.
# Submitted via: audiograbber 1.83.01
#
DISCID=d3104b10
DTITLE=Paul Young - The Collection
DYEAR=2006
DGENRE=
TTITLE0=Wherever I Lay My Hat (That's My Home)
TTITLE1=Everytime You Go Away
TTITLE2=Come Back And Stay
TTITLE3=Love Of The Common People
TTITLE4=Everything Must Change
TTITLE5=Oh Girl
TTITLE6=Softly Whispering I Love You
TTITLE7=Tomb Of Memories
TTITLE8=I'm Gonna Tear Your Playhouse Down
TTITLE9=Love Will Tear Us Apart
TTITLE10=Wonderland
TTITLE11=It Will Be You
TTITLE12=Follow On (Acoustic)
TTITLE13=Now I Know What Made Otis Blue
TTITLE14=Don't Dream It's Over
TTITLE15=Senza Una donna (Without A Woman)
EXTD=
EXTT0=
EXTT1=
EXTT2=
EXTT3=
EXTT4=
EXTT5=
EXTT6=
EXTT7=
EXTT8=
EXTT9=
EXTT10=
EXTT11=
EXTT12=
EXTT13=
EXTT14=
EXTT15=
PLAYORDER=
